<svg xmlns="http://www.w3.org/2000/svg" viewBox="0 0 120 120">
  <defs>
    <linearGradient id="cloudGrad" x1="0%" y1="0%" x2="0%" y2="100%">
      <stop offset="0%" stop-color="#0a427a" />
      <stop offset="100%" stop-color="#05274d" />
    </linearGradient>
    <linearGradient id="arrowGrad" x1="0%" y1="0%" x2="0%" y2="100%">
      <stop offset="0%" stop-color="#ff9800" />
      <stop offset="100%" stop-color="#f57c00" />
    </linearGradient>
  </defs>
  
  <g transform="translate(10, 15)">
    <!-- Bold Cloud Path -->
    <path fill="url(#cloudGrad)" d="M72,42 c-1.2-12-11.8-21.2-24.5-21.2 c-9.9,0-18.4,5.8-22.3,14.3 C14.3,37.2,6,46.2,6,57 c0,12.7,10.3,23,23,23 h45 c11,0,20-9,20-20 C94,49.8,85.2,42.8,72,42 z M74,70 H29 c-7.2,0-13-5.8-13-13 c0-6.8,5.1-12.3,11.7-12.9 l4-0.4 l1.3-3.8 c2.2-6.5,8.4-10.9,15.3-10.9 c7.8,0,14.3,5.5,15.9,13.1 l1,4.7 l4.7,0.8 c5.6,0.9,9.8,5.7,9.8,11.5 C84.8,64.8,79.9,70,74,70 z" />
    
    <!-- Bold Upload Arrow Path -->
    <path fill="url(#arrowGrad)" d="M54.5,41.5 L67.8,54.8 c1.4,1.4,1.4,3.7,0,5.1 c-1.4,1.4-3.7,1.4-5.1,0 L53.5,50.7 v22.8 c0,2-1.6,3.5-3.5,3.5 s-3.5-1.6-3.5-3.5 V50.7 l-9.2,9.2 c-1.4,1.4-3.7,1.4-5.1,0 c-1.4-1.4-1.4-3.7,0-5.1 l13.3-13.3 C47.5,40.1,49.8,39.6,51.2,40.1 C52.5,40.1,53.5,40.5,54.5,41.5 z"/>
  </g>
</svg>
